<svg width="142" height="24" viewBox="0 0 142 24" fill="none" xmlns="http://www.w3.org/2000/svg">
<rect x="0.5" y="0.5" width="141" height="23" fill="white" stroke="#7B7C82"/>
<g clip-path="url(#clip0_1874_9037)">
<path d="M13.4317 18.0298V22.4288C13.4317 22.9245 13.0307 23.3278 12.5383 23.3278H1.41494C0.922249 23.3278 0.521484 22.9245 0.521484 22.4288V18.0298" fill="#7B7C82"/>
<path d="M10.0195 10.8306H3.89241L3.66992 11.5676H5.30284L5.61461 12.5844H8.29848L8.60938 11.5676H10.242" fill="#7B7C82"/>
<path d="M4.89235 6.69043C4.66547 7.00591 4.57384 7.39031 4.63444 7.77501C4.69562 8.16 4.90201 8.49757 5.21436 8.72585L6.68101 9.79776C6.75975 9.85491 6.81069 9.93915 6.82591 10.0352C6.84114 10.1315 6.8183 10.2278 6.76151 10.3074L6.98224 10.4676L7.75684 9.39303C7.93834 9.14059 8.03319 8.84456 8.03319 8.53969C8.03319 8.4631 8.02733 8.38504 8.01474 8.30787C7.95385 7.92376 7.74776 7.5859 7.43482 7.35732L5.96847 6.28571C5.88972 6.22797 5.83849 6.14373 5.82327 6.0477C5.82034 6.02797 5.81858 6.00823 5.81858 5.98938C5.81858 5.91279 5.8423 5.83886 5.88738 5.77641L5.88767 5.77582L5.66665 5.61499C5.66665 5.61528 4.89235 6.69043 4.89235 6.69043Z" fill="#7B7C82"/>
<path d="M5.77577 2.38079C5.5123 2.74575 5.375 3.17581 5.375 3.61795C5.375 3.72988 5.38378 3.84211 5.40135 3.95463C5.49005 4.51194 5.78865 5.0018 6.24328 5.33318L8.0858 6.67579C8.32936 6.85341 8.48949 7.11616 8.53692 7.41484C8.54687 7.47523 8.55126 7.53532 8.55126 7.59482C8.55126 7.83224 8.47749 8.06229 8.33609 8.25788L8.51291 8.3866L9.96521 6.36709C10.294 5.91052 10.4272 5.35174 10.3393 4.79384C10.2509 4.23653 9.95233 3.74697 9.49741 3.41559L7.27227 1.78843C7.13204 1.68592 7.03983 1.53511 7.0126 1.36338C6.98567 1.19135 7.02636 1.01904 7.12765 0.877646L6.95171 0.749512" fill="#7B7C82"/>
<path d="M3.7309 16.136C4.0819 16.136 4.29355 16.0112 4.29355 15.741V15.7304C4.29355 15.4862 4.11293 15.3354 3.70514 15.3354H2.78563V16.136H3.7309ZM3.51895 14.6703C3.87025 14.6703 4.09244 14.5557 4.09244 14.2859V14.2753C4.09244 14.0361 3.90625 13.9009 3.57077 13.9009H2.78563V14.6703H3.51895ZM2.01074 13.199H3.68962C4.10268 13.199 4.42792 13.3136 4.6346 13.5215C4.80029 13.6879 4.88255 13.8909 4.88255 14.1401V14.1504C4.88255 14.561 4.66534 14.7896 4.40714 14.9351C4.82576 15.0965 5.08425 15.341 5.08425 15.8294V15.8397C5.08425 16.5048 4.54677 16.8377 3.7309 16.8377H2.01074" fill="#7B7C82"/>
<path d="M7.15023 16.136C7.50182 16.136 7.71376 16.0112 7.71376 15.741V15.7304C7.71376 15.4862 7.53256 15.3354 7.12418 15.3354H6.20526V16.136H7.15023ZM6.93858 14.6703C7.29017 14.6703 7.51148 14.5557 7.51148 14.2859V14.2753C7.51148 14.0361 7.32617 13.9009 6.99069 13.9009H6.20526V14.6703H6.93858ZM5.43066 13.199H7.10925C7.52231 13.199 7.84784 13.3136 8.05422 13.5215C8.21904 13.6879 8.30218 13.8909 8.30218 14.1401V14.1504C8.30218 14.561 8.08555 14.7896 7.82706 14.9351C8.24539 15.0965 8.50358 15.341 8.50358 15.8294V15.8397C8.50358 16.5048 7.96699 16.8377 7.15023 16.8377H5.43066" fill="#7B7C82"/>
<path d="M10.5692 16.136C10.9205 16.136 11.1327 16.0112 11.1327 15.741V15.7304C11.1327 15.4862 10.9509 15.3354 10.5431 15.3354H9.62362V16.136H10.5692ZM10.3569 14.6703C10.7085 14.6703 10.9304 14.5557 10.9304 14.2859V14.2753C10.9304 14.0361 10.7442 13.9009 10.4091 13.9009H9.62362V14.6703H10.3569ZM8.84961 13.199H10.5276C10.9413 13.199 11.2665 13.3136 11.4732 13.5215C11.6383 13.6879 11.7211 13.8909 11.7211 14.1401V14.1504C11.7211 14.561 11.5042 14.7896 11.2457 14.9351C11.6643 15.0965 11.9225 15.341 11.9225 15.8294V15.8397C11.9225 16.5048 11.3851 16.8377 10.5692 16.8377H8.84961" fill="#7B7C82"/>
<path d="M12.1299 16.6336C12.158 16.6336 12.1738 16.6183 12.1738 16.5968V16.5953C12.1738 16.5703 12.1562 16.5579 12.1281 16.5579H12.0728V16.6336H12.1299ZM12.0163 16.5073H12.1302C12.165 16.5073 12.1919 16.5176 12.2095 16.5355C12.2236 16.55 12.2312 16.5694 12.2312 16.5921V16.593C12.2312 16.6354 12.2083 16.661 12.1758 16.6734L12.2382 16.7659H12.1723L12.1176 16.6825H12.0728V16.7659H12.0163V16.5073ZM12.3289 16.6439V16.6425C12.3289 16.5235 12.2373 16.4274 12.1161 16.4274C11.994 16.4274 11.9018 16.5249 11.9018 16.6439V16.6451C11.9018 16.7638 11.9935 16.8599 12.1147 16.8599C12.237 16.8599 12.3289 16.7624 12.3289 16.6439ZM11.874 16.6451V16.6439C11.874 16.5114 11.9809 16.4006 12.1161 16.4006C12.2514 16.4006 12.3571 16.5102 12.3571 16.6425V16.6439C12.3571 16.7762 12.2502 16.8867 12.1147 16.8867C11.9794 16.8867 11.874 16.7774 11.874 16.6451Z" fill="#7B7C82"/>
<path d="M1.41537 23.7773C0.675318 23.7773 0.0751953 23.1735 0.0751953 22.4288V1.42368C0.0751953 0.67903 0.675318 0.0751796 1.41537 0.0751796H12.5387C13.2788 0.0751796 13.8789 0.67903 13.8789 1.42368V22.4288C13.8789 23.1735 13.2788 23.7773 12.5387 23.7773H1.41537Z" stroke="#7B7C82" stroke-width="2" stroke-miterlimit="10"/>
</g>
<path d="M31.05 7.92H32.34L35.42 15H33.66L33.05 13.5H30.3L29.71 15H27.99L31.05 7.92ZM31.65 9.98L30.79 12.18H32.52L31.65 9.98ZM39.2321 11.71C39.1588 11.6033 39.0554 11.5167 38.9221 11.45C38.7888 11.3767 38.6454 11.34 38.4921 11.34C38.1121 11.34 37.8154 11.4533 37.6021 11.68C37.3954 11.9067 37.2921 12.2033 37.2921 12.57C37.2921 12.9367 37.3954 13.2333 37.6021 13.46C37.8154 13.6867 38.1121 13.8 38.4921 13.8C38.6588 13.8 38.8021 13.7633 38.9221 13.69C39.0421 13.6167 39.1454 13.53 39.2321 13.43L40.2221 14.47C39.9888 14.71 39.7121 14.88 39.3921 14.98C39.0788 15.0733 38.7788 15.12 38.4921 15.12C38.1188 15.12 37.7654 15.06 37.4321 14.94C37.1054 14.82 36.8188 14.65 36.5721 14.43C36.3321 14.2033 36.1421 13.9333 36.0021 13.62C35.8621 13.3067 35.7921 12.9567 35.7921 12.57C35.7921 12.1833 35.8621 11.8333 36.0021 11.52C36.1421 11.2067 36.3321 10.94 36.5721 10.72C36.8188 10.4933 37.1054 10.32 37.4321 10.2C37.7654 10.08 38.1188 10.02 38.4921 10.02C38.7788 10.02 39.0788 10.07 39.3921 10.17C39.7121 10.2633 39.9888 10.43 40.2221 10.67L39.2321 11.71ZM44.0563 11.71C43.983 11.6033 43.8797 11.5167 43.7463 11.45C43.613 11.3767 43.4697 11.34 43.3163 11.34C42.9363 11.34 42.6397 11.4533 42.4263 11.68C42.2197 11.9067 42.1163 12.2033 42.1163 12.57C42.1163 12.9367 42.2197 13.2333 42.4263 13.46C42.6397 13.6867 42.9363 13.8 43.3163 13.8C43.483 13.8 43.6263 13.7633 43.7463 13.69C43.8663 13.6167 43.9697 13.53 44.0563 13.43L45.0463 14.47C44.813 14.71 44.5363 14.88 44.2163 14.98C43.903 15.0733 43.603 15.12 43.3163 15.12C42.943 15.12 42.5897 15.06 42.2563 14.94C41.9297 14.82 41.643 14.65 41.3963 14.43C41.1563 14.2033 40.9663 13.9333 40.8263 13.62C40.6863 13.3067 40.6163 12.9567 40.6163 12.57C40.6163 12.1833 40.6863 11.8333 40.8263 11.52C40.9663 11.2067 41.1563 10.94 41.3963 10.72C41.643 10.4933 41.9297 10.32 42.2563 10.2C42.5897 10.08 42.943 10.02 43.3163 10.02C43.603 10.02 43.903 10.07 44.2163 10.17C44.5363 10.2633 44.813 10.43 45.0463 10.67L44.0563 11.71ZM45.5905 10.14H47.0905V10.92H47.1105C47.2705 10.62 47.4605 10.3967 47.6805 10.25C47.9005 10.0967 48.1772 10.02 48.5105 10.02C48.5972 10.02 48.6839 10.0233 48.7705 10.03C48.8572 10.0367 48.9372 10.05 49.0105 10.07V11.44C48.9039 11.4067 48.7972 11.3833 48.6905 11.37C48.5905 11.35 48.4839 11.34 48.3705 11.34C48.0839 11.34 47.8572 11.38 47.6905 11.46C47.5239 11.54 47.3939 11.6533 47.3005 11.8C47.2139 11.94 47.1572 12.11 47.1305 12.31C47.1039 12.51 47.0905 12.73 47.0905 12.97V15H45.5905V10.14ZM54.087 14.16C53.847 14.4667 53.5437 14.7033 53.177 14.87C52.8104 15.0367 52.4304 15.12 52.037 15.12C51.6637 15.12 51.3104 15.06 50.977 14.94C50.6504 14.82 50.3637 14.65 50.117 14.43C49.877 14.2033 49.687 13.9333 49.547 13.62C49.407 13.3067 49.337 12.9567 49.337 12.57C49.337 12.1833 49.407 11.8333 49.547 11.52C49.687 11.2067 49.877 10.94 50.117 10.72C50.3637 10.4933 50.6504 10.32 50.977 10.2C51.3104 10.08 51.6637 10.02 52.037 10.02C52.3837 10.02 52.697 10.08 52.977 10.2C53.2637 10.32 53.5037 10.4933 53.697 10.72C53.897 10.94 54.0504 11.2067 54.157 11.52C54.2637 11.8333 54.317 12.1833 54.317 12.57V13.04H50.837C50.897 13.3267 51.027 13.5567 51.227 13.73C51.427 13.8967 51.6737 13.98 51.967 13.98C52.2137 13.98 52.4204 13.9267 52.587 13.82C52.7604 13.7067 52.9104 13.5633 53.037 13.39L54.087 14.16ZM52.817 12.02C52.8237 11.7667 52.7404 11.55 52.567 11.37C52.3937 11.19 52.1704 11.1 51.897 11.1C51.7304 11.1 51.5837 11.1267 51.457 11.18C51.3304 11.2333 51.2204 11.3033 51.127 11.39C51.0404 11.47 50.9704 11.5667 50.917 11.68C50.8704 11.7867 50.8437 11.9 50.837 12.02H52.817ZM60.3292 15H58.9492V14.36H58.9292C58.8692 14.4467 58.7892 14.5367 58.6892 14.63C58.5959 14.7167 58.4826 14.7967 58.3492 14.87C58.2226 14.9433 58.0792 15.0033 57.9192 15.05C57.7659 15.0967 57.6059 15.12 57.4392 15.12C57.0792 15.12 56.7526 15.06 56.4592 14.94C56.1659 14.8133 55.9126 14.64 55.6992 14.42C55.4926 14.1933 55.3326 13.9267 55.2192 13.62C55.1059 13.3133 55.0492 12.9767 55.0492 12.61C55.0492 12.27 55.0992 11.9467 55.1992 11.64C55.3059 11.3267 55.4526 11.05 55.6392 10.81C55.8326 10.57 56.0659 10.38 56.3392 10.24C56.6126 10.0933 56.9226 10.02 57.2692 10.02C57.5826 10.02 57.8726 10.07 58.1392 10.17C58.4126 10.2633 58.6359 10.4267 58.8092 10.66H58.8292V7.44H60.3292V15ZM58.9492 12.57C58.9492 12.2033 58.8426 11.9067 58.6292 11.68C58.4226 11.4533 58.1292 11.34 57.7492 11.34C57.3692 11.34 57.0726 11.4533 56.8592 11.68C56.6526 11.9067 56.5492 12.2033 56.5492 12.57C56.5492 12.9367 56.6526 13.2333 56.8592 13.46C57.0726 13.6867 57.3692 13.8 57.7492 13.8C58.1292 13.8 58.4226 13.6867 58.6292 13.46C58.8426 13.2333 58.9492 12.9367 58.9492 12.57ZM61.548 10.14H63.048V15H61.548V10.14ZM61.428 8.61C61.428 8.37 61.5114 8.16667 61.678 8C61.8514 7.82667 62.058 7.74 62.298 7.74C62.538 7.74 62.7414 7.82667 62.908 8C63.0814 8.16667 63.168 8.37 63.168 8.61C63.168 8.85 63.0814 9.05667 62.908 9.23C62.7414 9.39667 62.538 9.48 62.298 9.48C62.058 9.48 61.8514 9.39667 61.678 9.23C61.5114 9.05667 61.428 8.85 61.428 8.61ZM67.4357 11.34H66.1157V12.96C66.1157 13.0933 66.1224 13.2167 66.1357 13.33C66.149 13.4367 66.179 13.53 66.2257 13.61C66.2724 13.69 66.3424 13.7533 66.4357 13.8C66.5357 13.84 66.6657 13.86 66.8257 13.86C66.9057 13.86 67.009 13.8533 67.1357 13.84C67.269 13.82 67.369 13.78 67.4357 13.72V14.97C67.269 15.03 67.0957 15.07 66.9157 15.09C66.7357 15.11 66.559 15.12 66.3857 15.12C66.1324 15.12 65.899 15.0933 65.6857 15.04C65.4724 14.9867 65.2857 14.9033 65.1257 14.79C64.9657 14.67 64.839 14.5167 64.7457 14.33C64.659 14.1433 64.6157 13.9167 64.6157 13.65V11.34H63.6557V10.14H64.6157V8.7H66.1157V10.14H67.4357V11.34ZM72.798 14.16C72.558 14.4667 72.2546 14.7033 71.888 14.87C71.5213 15.0367 71.1413 15.12 70.748 15.12C70.3746 15.12 70.0213 15.06 69.688 14.94C69.3613 14.82 69.0746 14.65 68.828 14.43C68.588 14.2033 68.398 13.9333 68.258 13.62C68.118 13.3067 68.048 12.9567 68.048 12.57C68.048 12.1833 68.118 11.8333 68.258 11.52C68.398 11.2067 68.588 10.94 68.828 10.72C69.0746 10.4933 69.3613 10.32 69.688 10.2C70.0213 10.08 70.3746 10.02 70.748 10.02C71.0946 10.02 71.408 10.08 71.688 10.2C71.9746 10.32 72.2146 10.4933 72.408 10.72C72.608 10.94 72.7613 11.2067 72.868 11.52C72.9746 11.8333 73.028 12.1833 73.028 12.57V13.04H69.548C69.608 13.3267 69.738 13.5567 69.938 13.73C70.138 13.8967 70.3846 13.98 70.678 13.98C70.9246 13.98 71.1313 13.9267 71.298 13.82C71.4713 13.7067 71.6213 13.5633 71.748 13.39L72.798 14.16ZM71.528 12.02C71.5346 11.7667 71.4513 11.55 71.278 11.37C71.1046 11.19 70.8813 11.1 70.608 11.1C70.4413 11.1 70.2946 11.1267 70.168 11.18C70.0413 11.2333 69.9313 11.3033 69.838 11.39C69.7513 11.47 69.6813 11.5667 69.628 11.68C69.5813 11.7867 69.5546 11.9 69.548 12.02H71.528ZM79.0402 15H77.6602V14.36H77.6402C77.5802 14.4467 77.5002 14.5367 77.4002 14.63C77.3068 14.7167 77.1935 14.7967 77.0602 14.87C76.9335 14.9433 76.7902 15.0033 76.6302 15.05C76.4768 15.0967 76.3168 15.12 76.1502 15.12C75.7902 15.12 75.4635 15.06 75.1702 14.94C74.8768 14.8133 74.6235 14.64 74.4102 14.42C74.2035 14.1933 74.0435 13.9267 73.9302 13.62C73.8168 13.3133 73.7602 12.9767 73.7602 12.61C73.7602 12.27 73.8102 11.9467 73.9102 11.64C74.0168 11.3267 74.1635 11.05 74.3502 10.81C74.5435 10.57 74.7768 10.38 75.0502 10.24C75.3235 10.0933 75.6335 10.02 75.9802 10.02C76.2935 10.02 76.5835 10.07 76.8502 10.17C77.1235 10.2633 77.3468 10.4267 77.5202 10.66H77.5402V7.44H79.0402V15ZM77.6602 12.57C77.6602 12.2033 77.5535 11.9067 77.3402 11.68C77.1335 11.4533 76.8402 11.34 76.4602 11.34C76.0802 11.34 75.7835 11.4533 75.5702 11.68C75.3635 11.9067 75.2602 12.2033 75.2602 12.57C75.2602 12.9367 75.3635 13.2333 75.5702 13.46C75.7835 13.6867 76.0802 13.8 76.4602 13.8C76.8402 13.8 77.1335 13.6867 77.3402 13.46C77.5535 13.2333 77.6602 12.9367 77.6602 12.57ZM83.388 7.92H86.028C86.3346 7.92 86.6413 7.94333 86.948 7.99C87.2613 8.03 87.5413 8.11667 87.788 8.25C88.0346 8.37667 88.2346 8.55667 88.388 8.79C88.5413 9.02333 88.618 9.33333 88.618 9.72C88.618 10.12 88.5046 10.4533 88.278 10.72C88.058 10.98 87.7646 11.1667 87.398 11.28V11.3C87.6313 11.3333 87.8413 11.4 88.028 11.5C88.2213 11.5933 88.3846 11.7167 88.518 11.87C88.658 12.0167 88.7646 12.19 88.838 12.39C88.9113 12.59 88.948 12.8033 88.948 13.03C88.948 13.4033 88.868 13.7167 88.708 13.97C88.548 14.2167 88.3413 14.4167 88.088 14.57C87.8346 14.7233 87.548 14.8333 87.228 14.9C86.9146 14.9667 86.6013 15 86.288 15H83.388V7.92ZM84.948 10.75H86.078C86.198 10.75 86.3146 10.7367 86.428 10.71C86.548 10.6833 86.6546 10.64 86.748 10.58C86.8413 10.52 86.9146 10.44 86.968 10.34C87.028 10.24 87.058 10.12 87.058 9.98C87.058 9.83333 87.0246 9.71333 86.958 9.62C86.898 9.52 86.818 9.44333 86.718 9.39C86.618 9.33667 86.5046 9.3 86.378 9.28C86.2513 9.25333 86.128 9.24 86.008 9.24H84.948V10.75ZM84.948 13.68H86.348C86.468 13.68 86.588 13.6667 86.708 13.64C86.8346 13.6133 86.948 13.5667 87.048 13.5C87.148 13.4333 87.228 13.3467 87.288 13.24C87.3546 13.1333 87.388 13.0033 87.388 12.85C87.388 12.6833 87.3446 12.55 87.258 12.45C87.178 12.3433 87.0746 12.2633 86.948 12.21C86.8213 12.1567 86.6846 12.12 86.538 12.1C86.3913 12.08 86.2546 12.07 86.128 12.07H84.948V13.68ZM94.3623 15H92.9223V14.34H92.9023C92.849 14.4333 92.779 14.5267 92.6923 14.62C92.6123 14.7133 92.5123 14.7967 92.3923 14.87C92.2723 14.9433 92.1357 15.0033 91.9823 15.05C91.829 15.0967 91.6623 15.12 91.4823 15.12C91.1023 15.12 90.7923 15.0633 90.5523 14.95C90.319 14.83 90.1357 14.6667 90.0023 14.46C89.8757 14.2533 89.789 14.01 89.7423 13.73C89.7023 13.45 89.6823 13.1467 89.6823 12.82V10.14H91.1823V12.52C91.1823 12.66 91.1857 12.8067 91.1923 12.96C91.2057 13.1067 91.2357 13.2433 91.2823 13.37C91.3357 13.4967 91.4123 13.6 91.5123 13.68C91.619 13.76 91.769 13.8 91.9623 13.8C92.1557 13.8 92.3123 13.7667 92.4323 13.7C92.5523 13.6267 92.6423 13.5333 92.7023 13.42C92.769 13.3 92.8123 13.1667 92.8323 13.02C92.8523 12.8733 92.8623 12.72 92.8623 12.56V10.14H94.3623V15ZM98.1745 11.57C97.9545 11.2967 97.6645 11.16 97.3045 11.16C97.1779 11.16 97.0545 11.19 96.9345 11.25C96.8145 11.31 96.7545 11.4133 96.7545 11.56C96.7545 11.68 96.8145 11.77 96.9345 11.83C97.0612 11.8833 97.2179 11.9333 97.4045 11.98C97.5979 12.02 97.8012 12.0667 98.0145 12.12C98.2345 12.1667 98.4379 12.2433 98.6245 12.35C98.8179 12.4567 98.9745 12.6033 99.0945 12.79C99.2212 12.97 99.2845 13.2133 99.2845 13.52C99.2845 13.8333 99.2145 14.0933 99.0745 14.3C98.9412 14.5 98.7679 14.6633 98.5545 14.79C98.3412 14.91 98.1012 14.9933 97.8345 15.04C97.5679 15.0933 97.3045 15.12 97.0445 15.12C96.7045 15.12 96.3612 15.0733 96.0145 14.98C95.6679 14.88 95.3745 14.7067 95.1345 14.46L96.0445 13.45C96.1845 13.6233 96.3379 13.7567 96.5045 13.85C96.6779 13.9367 96.8779 13.98 97.1045 13.98C97.2779 13.98 97.4345 13.9567 97.5745 13.91C97.7145 13.8567 97.7845 13.7633 97.7845 13.63C97.7845 13.5033 97.7212 13.41 97.5945 13.35C97.4745 13.2833 97.3179 13.23 97.1245 13.19C96.9379 13.1433 96.7345 13.0967 96.5145 13.05C96.3012 12.9967 96.0979 12.92 95.9045 12.82C95.7179 12.72 95.5612 12.58 95.4345 12.4C95.3145 12.2133 95.2545 11.9667 95.2545 11.66C95.2545 11.3733 95.3112 11.1267 95.4245 10.92C95.5445 10.7133 95.6979 10.5433 95.8845 10.41C96.0779 10.2767 96.2979 10.18 96.5445 10.12C96.7912 10.0533 97.0412 10.02 97.2945 10.02C97.6145 10.02 97.9379 10.0667 98.2645 10.16C98.5912 10.2533 98.8679 10.42 99.0945 10.66L98.1745 11.57ZM100.073 10.14H101.573V15H100.073V10.14ZM99.9534 8.61C99.9534 8.37 100.037 8.16667 100.203 8C100.377 7.82667 100.583 7.74 100.823 7.74C101.063 7.74 101.267 7.82667 101.433 8C101.607 8.16667 101.693 8.37 101.693 8.61C101.693 8.85 101.607 9.05667 101.433 9.23C101.267 9.39667 101.063 9.48 100.823 9.48C100.583 9.48 100.377 9.39667 100.203 9.23C100.037 9.05667 99.9534 8.85 99.9534 8.61ZM102.651 10.14H104.091V10.8H104.111C104.158 10.7067 104.224 10.6133 104.311 10.52C104.398 10.4267 104.501 10.3433 104.621 10.27C104.741 10.1967 104.878 10.1367 105.031 10.09C105.184 10.0433 105.351 10.02 105.531 10.02C105.911 10.02 106.218 10.08 106.451 10.2C106.684 10.3133 106.864 10.4733 106.991 10.68C107.124 10.8867 107.214 11.13 107.261 11.41C107.308 11.69 107.331 11.9933 107.331 12.32V15H105.831V12.62C105.831 12.48 105.824 12.3367 105.811 12.19C105.804 12.0367 105.774 11.8967 105.721 11.77C105.674 11.6433 105.598 11.54 105.491 11.46C105.391 11.38 105.244 11.34 105.051 11.34C104.858 11.34 104.701 11.3767 104.581 11.45C104.461 11.5167 104.368 11.61 104.301 11.73C104.241 11.8433 104.201 11.9733 104.181 12.12C104.161 12.2667 104.151 12.42 104.151 12.58V15H102.651V10.14ZM112.993 14.16C112.753 14.4667 112.45 14.7033 112.083 14.87C111.717 15.0367 111.337 15.12 110.943 15.12C110.57 15.12 110.217 15.06 109.883 14.94C109.557 14.82 109.27 14.65 109.023 14.43C108.783 14.2033 108.593 13.9333 108.453 13.62C108.313 13.3067 108.243 12.9567 108.243 12.57C108.243 12.1833 108.313 11.8333 108.453 11.52C108.593 11.2067 108.783 10.94 109.023 10.72C109.27 10.4933 109.557 10.32 109.883 10.2C110.217 10.08 110.57 10.02 110.943 10.02C111.29 10.02 111.603 10.08 111.883 10.2C112.17 10.32 112.41 10.4933 112.603 10.72C112.803 10.94 112.957 11.2067 113.063 11.52C113.17 11.8333 113.223 12.1833 113.223 12.57V13.04H109.743C109.803 13.3267 109.933 13.5567 110.133 13.73C110.333 13.8967 110.58 13.98 110.873 13.98C111.12 13.98 111.327 13.9267 111.493 13.82C111.667 13.7067 111.817 13.5633 111.943 13.39L112.993 14.16ZM111.723 12.02C111.73 11.7667 111.647 11.55 111.473 11.37C111.3 11.19 111.077 11.1 110.803 11.1C110.637 11.1 110.49 11.1267 110.363 11.18C110.237 11.2333 110.127 11.3033 110.033 11.39C109.947 11.47 109.877 11.5667 109.823 11.68C109.777 11.7867 109.75 11.9 109.743 12.02H111.723ZM116.885 11.57C116.665 11.2967 116.375 11.16 116.015 11.16C115.889 11.16 115.765 11.19 115.645 11.25C115.525 11.31 115.465 11.4133 115.465 11.56C115.465 11.68 115.525 11.77 115.645 11.83C115.772 11.8833 115.929 11.9333 116.115 11.98C116.309 12.02 116.512 12.0667 116.725 12.12C116.945 12.1667 117.149 12.2433 117.335 12.35C117.529 12.4567 117.685 12.6033 117.805 12.79C117.932 12.97 117.995 13.2133 117.995 13.52C117.995 13.8333 117.925 14.0933 117.785 14.3C117.652 14.5 117.479 14.6633 117.265 14.79C117.052 14.91 116.812 14.9933 116.545 15.04C116.279 15.0933 116.015 15.12 115.755 15.12C115.415 15.12 115.072 15.0733 114.725 14.98C114.379 14.88 114.085 14.7067 113.845 14.46L114.755 13.45C114.895 13.6233 115.049 13.7567 115.215 13.85C115.389 13.9367 115.589 13.98 115.815 13.98C115.989 13.98 116.145 13.9567 116.285 13.91C116.425 13.8567 116.495 13.7633 116.495 13.63C116.495 13.5033 116.432 13.41 116.305 13.35C116.185 13.2833 116.029 13.23 115.835 13.19C115.649 13.1433 115.445 13.0967 115.225 13.05C115.012 12.9967 114.809 12.92 114.615 12.82C114.429 12.72 114.272 12.58 114.145 12.4C114.025 12.2133 113.965 11.9667 113.965 11.66C113.965 11.3733 114.022 11.1267 114.135 10.92C114.255 10.7133 114.409 10.5433 114.595 10.41C114.789 10.2767 115.009 10.18 115.255 10.12C115.502 10.0533 115.752 10.02 116.005 10.02C116.325 10.02 116.649 10.0667 116.975 10.16C117.302 10.2533 117.579 10.42 117.805 10.66L116.885 11.57ZM121.514 11.57C121.294 11.2967 121.004 11.16 120.644 11.16C120.518 11.16 120.394 11.19 120.274 11.25C120.154 11.31 120.094 11.4133 120.094 11.56C120.094 11.68 120.154 11.77 120.274 11.83C120.401 11.8833 120.558 11.9333 120.744 11.98C120.938 12.02 121.141 12.0667 121.354 12.12C121.574 12.1667 121.778 12.2433 121.964 12.35C122.158 12.4567 122.314 12.6033 122.434 12.79C122.561 12.97 122.624 13.2133 122.624 13.52C122.624 13.8333 122.554 14.0933 122.414 14.3C122.281 14.5 122.108 14.6633 121.894 14.79C121.681 14.91 121.441 14.9933 121.174 15.04C120.908 15.0933 120.644 15.12 120.384 15.12C120.044 15.12 119.701 15.0733 119.354 14.98C119.008 14.88 118.714 14.7067 118.474 14.46L119.384 13.45C119.524 13.6233 119.678 13.7567 119.844 13.85C120.018 13.9367 120.218 13.98 120.444 13.98C120.618 13.98 120.774 13.9567 120.914 13.91C121.054 13.8567 121.124 13.7633 121.124 13.63C121.124 13.5033 121.061 13.41 120.934 13.35C120.814 13.2833 120.658 13.23 120.464 13.19C120.278 13.1433 120.074 13.0967 119.854 13.05C119.641 12.9967 119.438 12.92 119.244 12.82C119.058 12.72 118.901 12.58 118.774 12.4C118.654 12.2133 118.594 11.9667 118.594 11.66C118.594 11.3733 118.651 11.1267 118.764 10.92C118.884 10.7133 119.038 10.5433 119.224 10.41C119.418 10.2767 119.638 10.18 119.884 10.12C120.131 10.0533 120.381 10.02 120.634 10.02C120.954 10.02 121.278 10.0667 121.604 10.16C121.931 10.2533 122.208 10.42 122.434 10.66L121.514 11.57Z" fill="#7B7C82"/>
<defs>
<clipPath id="clip0_1874_9037">
<rect width="13.9535" height="24" fill="white"/>
</clipPath>
</defs>
</svg>
